<svg width="30" height="30" viewBox="0 0 30 30" fill="none" xmlns="http://www.w3.org/2000/svg">
    <path d="M15 30C23.2847 30 30 23.2847 30 15C30 6.71529 23.2847 0 15 0C6.71529 0 0 6.71535 0 15C0 23.2847 6.71529 30 15 30ZM15 28.125C14.295 28.125 13.6087 28.0537 12.9337 27.9459C11.7797 26.4544 8.48063 23.5116 8.41965 22.9903C8.29029 21.8906 5.87994 20.6259 4.68937 20.6166C3.49873 20.6072 4.25627 17.895 3.44627 17.0568C3.06471 16.6621 2.5238 16.8843 2.07563 17.2031C1.95373 16.4887 1.87592 15.7584 1.875 15.0084C2.49845 14.8106 3.09471 14.5499 3.14908 13.9303C3.19218 13.4466 4.38937 12.7378 4.34253 12.8203C4.29563 12.9028 5.94753 10.3349 5.90816 9.60184C5.8688 8.86776 5.26598 7.86649 5.90816 6.38339C6.28035 5.52367 6.43408 5.16931 6.49971 5.01747C7.61253 4.06874 8.88563 3.30839 10.2713 2.77029C10.2825 3.48557 11.7309 4.29 12.5053 4.09782C13.8994 3.7519 15.5016 4.44655 16.8582 4.88253C18.2157 5.31943 18.9151 3.56253 19.2582 3.16408C19.4363 2.95782 20.0597 3.03471 20.6213 3.15661C20.7844 3.23443 20.9504 3.30851 21.1107 3.39288C21.1576 3.63569 21.2354 3.90851 21.3854 4.23759C22.1279 5.86506 21.6995 5.83414 20.3129 6.38351C18.9264 6.93288 19.3904 6.54943 18.5758 7.55633C18.5758 7.55633 18.3423 8.12443 18.167 8.52949C17.9917 8.93449 17.9289 10.9389 17.0945 9.60202C16.3989 8.4892 15.9554 8.53329 15.9554 8.53329C15.9554 8.53329 15.242 8.5342 14.9495 9.60202C14.657 10.6689 12.6189 11.7695 12.8036 12.8205C12.9883 13.8714 12.8917 13.9746 13.5151 14.4283C13.741 14.5924 13.8573 15.3105 13.876 16.0389C13.9051 17.1517 13.5732 16.5489 14.9486 17.1114C16.3239 17.6748 16.1298 18.4379 17.0945 19.2573C18.0592 20.0767 18.6864 19.1926 19.2404 21.4032C19.7945 23.6139 20.5763 25.3632 21.3863 24.6217C22.1963 23.8801 22.9998 23.5304 23.5322 21.4032C24.0648 19.276 23.9447 21.0967 24.6047 18.1848C25.2647 15.2729 26.1882 15.2101 26.1882 15.2101C26.1882 15.2101 26.8238 15.0722 27.1003 15.9563C27.2756 16.516 27.4856 17.2726 27.8297 17.7563C26.5575 23.6737 21.2906 28.125 15 28.125Z"
          fill="#FFFF"/>
</svg>
