<svg width="150" height="150" viewBox="0 0 150 150" fill="none" xmlns="http://www.w3.org/2000/svg">
<circle cx="75" cy="75" r="75" fill="#1E892A" fill-opacity="0.2"/>
<path d="M28.6216 71.2508C28.2988 71.2514 27.9834 71.3483 27.7158 71.5289C27.4482 71.7096 27.2405 71.9658 27.1192 72.265C26.9978 72.5642 26.9683 72.8928 27.0345 73.2088C27.1006 73.5248 27.2594 73.8139 27.4906 74.0393L59.9525 106.501C60.0998 106.666 60.2792 106.799 60.4797 106.892C60.6802 106.985 60.8976 107.036 61.1185 107.043C61.3395 107.049 61.5594 107.01 61.7648 106.928C61.9702 106.846 62.1568 106.724 62.3131 106.567C62.4694 106.411 62.5922 106.224 62.6739 106.019C62.7556 105.814 62.7946 105.594 62.7884 105.373C62.7822 105.152 62.731 104.934 62.6379 104.734C62.5448 104.533 62.4118 104.354 62.247 104.207L29.7852 71.7448C29.6333 71.5881 29.4514 71.4636 29.2504 71.3787C29.0494 71.2939 28.8333 71.2503 28.6151 71.2508H28.6216ZM122.842 42C122.419 42.013 122.016 42.1853 121.72 42.4875L66.5274 97.674C64.9348 99.2015 67.2944 101.564 68.8252 99.9718L124.018 44.7853C125.071 43.7518 124.272 42 122.842 42Z" fill="#1E892A"/>
</svg>
